<svg viewBox="0 0 52.23 62.1" xmlns="http://www.w3.org/2000/svg" xmlns:xlink="http://www.w3.org/1999/xlink"><radialGradient id="a" cx="56.46" cy="167.69" gradientTransform="matrix(.50168 0 0 .29088 13.338 -25.529)" gradientUnits="userSpaceOnUse" r="20.58"><stop offset="0" stop-color="#f00"/><stop offset="1" stop-color="#f00" stop-opacity="0"/></radialGradient><radialGradient id="b" cx="56.46" cy="167.69" gradientTransform="matrix(1.203 0 0 .16716 -43.16 30.63)" gradientUnits="userSpaceOnUse" r="20.58"><stop offset="0" stop-color="#838383"/><stop offset="1" stop-color="#bfbfbf" stop-opacity="0"/></radialGradient><ellipse cx="24.76" cy="58.67" fill="url(#b)" opacity=".79" rx="24.76" ry="3.44"/><g fill="#ffb370"><path d="m11.75 53.32c.25-.7 2.02-.39 2.86-1 .83-.63 2.05-1.9 1.66-3.73-.4-1.83 2.82-2.42 3.3-2.19.47.24-.45 2.88-1.13 4.37-.62672 1.3599-1.8123 2.3814-3.25 2.8-1.15.31-3.44-.25-3.44-.25zm13.49-7.82-.68-2.64 2.91-1.18c.4-.02 2.69 1.45 2.9 1.8.2.33 1.77 3.93.15 5.99s-4.05 3.44-6.35 3.24c-1.1-.09-3.23-.87-2.66-2.3l3.36-.98z"/><path d="m19.89 43.74c.78-.13 1.3-1.55 1.45-2.01l-1.84-1.94c-.3-.15-2.59.35-2.87.58-.28.22-2.76 2.73-2.23 5 .53 2.26 1.92 4.2 3.78 4.79.88.27 2.8.3 2.87-1.09.03-.53-1.91-.56-2.26-1.9-.4-1.52-.14-2.26 1.1-3.43zm1.91 14.19c.3-.59-1-.87-1.1-1.57-.12-.7-.05-1.99 1.36-3.2 1.4-1.23-.19-2.6-.63-2.56-.43.03-1.57 2.23-2.1 3.51-.54 1.3-.34 2.4.2 3 .5.56 2.27.82 2.27.82z"/></g><path d="m16.3 42.91c-.1.22-.26.42-.47.6-.1.09-.26.15-.4.13-.06 0-.12-.03-.15-.07-.1-.12-.1-.3-.05-.46.08-.2.22-.4.4-.56.13031-.1093.30324-.15345.47-.12.16.03.29.14.26.3 0 .06-.03.13-.06.18zm14.18 3.61c.04.13.11.25.2.28.03.02.08.03.1 0 .1-.07.14-.24.14-.41 0-.21-.03-.45-.1-.67z" fill="#fffdfb" fill-opacity=".46"/><g fill="#fd9c50"><path d="m45.77 29.76c-3.03 10.81-10.88 15-18.46 12.9-6.72-1.84-11.03-12.08-7.82-20.04 2.53-6.26 8.28-8.97 15.76-6.58 7.28 2.32 11.87 8.93 10.52 13.72z"/><path d="m24.95 41.59 3.2-.33c.38.09 1.76.81 2.5 2.9.84 1.65-.33 4.51-2.7 6.1-2.37 1.58-5.19 1.84-7.25.98-.97-.4-2.56-1.34-1.43-2.61.43-.49 1.77.51 3.21-.4 1.62-1.04 2.04-1.87 1.99-3.8zm-16.19-7.43c.76.14.64 2.05 1.38 2.81s2.21 1.8 4.06 1.06c1.86-.75 2.39 2.53 2.2 3.07-.18.54-2.59.05-4.21-.4-1.4858-.39877-2.7039-1.4618-3.3-2.88-.44-1.16-.13-3.66-.13-3.66zm33.07-33.76c1.1-.68 3-.55 3.11.85.07.83 6.94 34.13 7.2 35.04.34 1.25-.25 2.6-1.54 2.56-1.18-.27-37.89-17.82-38.88-18.19-1-.36-2.42-3.02-.54-3.65s29.07-15.32 30.65-16.6z"/><path d="m23.75 58.06c.13-.77-1.71-1.28-2.18-2.24-.48-.95-.97-2.69.35-4.18 1.33-1.5-1.59-3.1-2.16-3.1-.56 0-.9 2.43-1.03 4.1-.11521 1.5357.48658 3.0383 1.63 4.07.93.81 3.4 1.35 3.4 1.35zm-2.76-15.73 2 2.16 2.87-1.48.42-3.89-5.73-3.72c-2.87-.05-5.37 1.28-6.6 3.16-.57.9-1.37 2.57.3 3.04.63.17 1.18-1.43 2.9-1.43 1.94-.01 2.77.47 3.83 2.16z"/></g><g fill="#cb6e3b"><path d="m24.81 43.61c-.08-.45.14-.76-.3-1.53-1.02-1.84-3.83-2.34-4.37-2.48s-1.66-.85-3.39-.22c-1.1.33-1.51 1.17-1.85 1.66-.26.29-.73.39-.92.44.13.05.79.5 1.09.11l.07.06c.02339.02141.05051.03835.08.05l.01.01c.25.12.65-.02.94-.33.2-.16.31-.35.37-.56.02-.18.06-.26-.07-.43-.03-.02-.02-.04-.05-.06v-.03c.14-.06.3-.08.43-.1v.12l.09.36v.03l.03.08c.12.28.56.45 1.05.42.48-.04.86-.28.9-.56.01025-.06069.0033-.12304-.02-.18l-.01-.07c.22.08.42.18.61.31l-.12.12-.02.01c-.023.02059-.04317.04412-.06.07h-.01v.01c-.18.26-.05.77.31 1.2.4.48.96.7 1.23.48.02645-.02.05-.04356.07-.07l.05-.03c.03.9 1.5 1.86 1.99 2.14.23.14.1.14.67-.2z"/><path d="m24.86 42.83c.06.23.23.45.22.7.1.83.22 1.65.25 2.48 0 .44-.11.9-.44 1.21-.57561.69502-1.2655 1.2868-2.04 1.75-.64.28-1.37.2-2.02 0-.4-.13-.79-.39-1.23-.35-.21 0-.32.27-.54.28.2-.26.32-.78.68-.8.18.05.22-.18.32-.28.1-.11.26-.1.4-.14.4-.05.86.09 1.1.43.07.14-.04.48.23.34.16-.04.34-.02.47-.13.04-.17-.17-.3-.16-.5-.04327-.1986.01695-.4056.16-.55.31-.38.81-.61 1.3-.55.17.04.28.19.35.33.1-.16.27-.3.3-.51-.07-.1-.3-.05-.39-.18-.25-.22-.3-.59-.28-.9.01-.3.05-.6.04-.9.02-.31.02-.63.14-.92l.72-1.64c.2.26.29.55.42.83z"/></g><g fill="#ffddc2"><path d="m34.69 6.49c-.56.31-.98.56-1.32.7-.52.21-1.2-.49-.49-.87.38-.22.86-.49 1.4-.73.56-.25.98.59.42.9z"/><path d="m28.8 45.98c-.14.2-.24.48-.29.76-.03.15 0 .33.08.43.04.06.1.1.15.1.17.02.33-.09.44-.24.15-.18.25-.42.3-.67a.56.56 0 0 0 -.13-.5c-.11-.11-.28-.16-.4-.04-.06.04-.12.1-.15.16zm-9.02-9.13c-.26.04-.54.02-.82-.05-.15-.04-.3-.13-.36-.26-.03-.06-.05-.12-.02-.17.05-.16.2-.26.4-.3.22-.06.48-.05.73 0 .19.04.34.18.4.33s.03.32-.13.4a.61.61 0 0 1 -.2.05z" fill-opacity=".6"/></g><path d="m32.391 30.175c.444-.67242 1.093-.35294.80249.25011-.29562.61135-.50774 1.0678-.71826 1.3943-.31966.48701-1.0757.26999-.69657-.49629.18169-.40662.40236-.74973.61234-1.1481zm6.6426 2.6003c.50084-.62 1.1221-.2369.77235.33585-.35487.58105-.69426 1.1731-.98486 1.4307-.31594.29906-.898.01539-.45695-.70677.2332-.38183.41571-.68066.66946-1.0598z" fill="#4e3b3a" stroke="#2f2828" stroke-width=".36488"/><path d="m36.59 38.3c-.17-.57 1.24-1.5 1.63-1.64s-1.27 2.33-1.63 1.64zm.97.12c-.15-.45.97-1.1 1.28-1.2.31-.08-.96 1.75-1.28 1.2zm-1.74-.43c-.18-.57 1.23-1.5 1.62-1.65.4-.14-1.27 2.34-1.62 1.65zm-7.53-3.87c-.2-.47.97-.97 1.3-1.02s-.91 1.6-1.3 1.02zm.56.82c-.17-.56 1.24-1.5 1.63-1.64s-1.27 2.34-1.63 1.64zm.86.36c-.17-.58 1.24-1.5 1.63-1.65.39-.14-1.27 2.33-1.63 1.64z" fill="#d35034" fill-opacity=".44" stroke-width="1.04"/><g opacity=".7" stroke-width="1.04" transform="translate(-85.01 -95.1)"><path d="m115.36 105.91c2.8-.68 17.06 7.47 17.3 8.7.24 1.22-9 10.99-10.2 10.47-1.22-.51-9.46-17.4-7.1-19.17z" fill="#fff"/><path d="m132.84 114.62c-2.94 3.95-5.73 7.2-10.39 10.44 7.76 3.64 12.04 5.48 12.54 5.6.98.21.78-1.34.5-2.4-.09-.36-1.35-6.88-2.65-13.64z" fill="#f1680d"/><path d="m129.42 98.16c-.25-.2-.63-.22-1.16.1-.7.58-6.9 4.25-12.94 7.72 4.1 1.64 10.73 4.46 17.57 8.86-1.47-7.6-3-15.6-3.08-15.96-.06-.3-.19-.56-.39-.72z" fill="#211f20"/><path d="m115.4 105.93c-5.61 3.23-11.09 6.3-11.86 6.57-1.59.55-1.01 3.23-.18 3.53.4.15 11.42 5.47 18.98 9-2.17-7.13-5.34-14.88-6.95-19.1z" fill="#737373"/></g><ellipse cx="41.658" cy="23.251" fill="url(#a)" opacity=".58" rx="10.32" ry="5.99" transform="matrix(.94937066 .31415816 -.31415816 .94937066 0 0)"/><path d="m32.07 39.47c-.66-.2-.76-1-.4-1.55.48-1.04 2.7-.75 1.66.95-.8.9-1.26.6-1.26.6z" fill="#91332b" stroke="#5d0000" stroke-width=".36"/><path d="m32.06 27.03c1.53.12 1 4.45 1.85 4.73m8.74-.78c-1.9-1.18-3.76 2.8-4.93 2.33" fill="none" stroke="#000" stroke-linecap="round" stroke-width=".57"/></svg>