<svg viewBox="0 0 50.87 61.75" xmlns="http://www.w3.org/2000/svg" xmlns:xlink="http://www.w3.org/1999/xlink"><radialGradient id="a" cx="56.46" cy="167.69" gradientTransform="matrix(1.203 0 0 .16716 -41.8 30.28)" gradientUnits="userSpaceOnUse" r="20.58"><stop offset="0" stop-color="#838383"/><stop offset="1" stop-color="#bfbfbf" stop-opacity="0"/></radialGradient><ellipse cx="26.12" cy="58.31" fill="url(#a)" opacity=".79" rx="24.76" ry="3.44"/><g fill="#ffb370"><path d="m9.96 53.51c.72-.32 1.8 1.2 2.89 1.35 1.1.17 2.97.13 4.05-1.47s3.93.31 4.1.82c.18.51-2.5 1.75-4.13 2.33a5.66 5.66 0 0 1 -4.54-.34c-1.09-.62-2.37-2.69-2.37-2.69zm31.11-.24c-.72-.33-1.8 1.19-2.9 1.35-1.09.16-2.96.13-4.04-1.48-1.09-1.6-3.93.32-4.1.83-.19.5 2.5 1.74 4.13 2.32s3.37.32 4.53-.34c1.1-.62 2.38-2.68 2.38-2.68z"/><path d="m19.72 44.05c-.3-.17-2.76.17-3.08.38-.3.2-3.13 2.58-2.74 4.93.38 2.34 1.7 4.43 3.62 5.17zm11.58-.24c.3-.17 2.77.17 3.08.37s3.13 2.59 2.75 4.93c-.38 2.35-1.7 4.44-3.62 5.17z"/></g><path d="m16.1 47c-.12.21-.31.4-.55.57a.59.59 0 0 1 -.43.1c-.07 0-.13-.03-.16-.08-.1-.13-.09-.3 0-.47.09-.2.25-.38.45-.54a.6.6 0 0 1 .5-.1c.18.05.3.18.26.33a.53.53 0 0 1 -.07.19zm18.83-.25c.12.21.3.41.54.57.13.09.3.14.43.11.07 0 .13-.04.16-.09.1-.13.1-.3.01-.47-.1-.2-.26-.38-.46-.54a.6.6 0 0 0 -.5-.09c-.17.05-.3.17-.26.33.01.06.04.14.08.18z" fill="#fffdfb" fill-opacity=".46"/><g fill="#fd9c50"><path d="m27.72 48.97c-.95-.07-1.73-1.8-1.94-2.37l6.15-2.49c.36.25 3.4 3.45 3 6.37-.42 2.91-2.22 5.23-4.38 6.18-5.2991.92077-1.5492-1.6202-1.17-3.49.31-1.95-.06-2.86-1.66-4.2zm-3.86.16c.95-.07 1.72-1.8 1.94-2.37l-6.15-2.48c-.36.24-3.4 3.44-3 6.36.42 2.92 2.22 5.23 4.38 6.18 1.03.45 2.91 1 3.14-.76.08-.67-1.68-.98-1.97-2.72-.32-1.96.06-2.87 1.66-4.2zm-2.41-47.84c.72-1.13 2.58-1.9 3.35-.67.46.73 22.95 27.91 23.62 28.62.92.98 1.02 2.48-.22 3.05-1.25.3-44.38 1.29-45.5 1.41-1.11.13-3.73-1.63-2.26-3.08 1.48-1.45 20.14-27.43 21.01-29.33z"/><path d="m38.09 55.08c-.74-.35-1.84 1.3-2.95 1.47s-3.03.14-4.13-1.6c-1.1-1.75-3.63.62-3.81 1.18-.18.55 2.17 1.61 3.84 2.24s3.44.34 4.62-.37c1.12-.67 2.43-2.92 2.43-2.92zm-24.62.22c.74-.36 1.84 1.29 2.95 1.47 1.12.17 3.03.13 4.13-1.61 1.1-1.75 3.63.63 3.81 1.18.18.56-2.17 1.62-3.84 2.25-1.5198.56722-3.2133.42793-4.62-.38-1.12-.67-2.43-2.91-2.43-2.91zm25.8-29.07c2.32 11.27-3.1 18.71-11.26 20.32-7.24 1.43-16.24-5.91-17.02-14.66z"/></g><g fill="#cb6e3b"><path d="m24.81 46.17c-.46.15-.44.21-1.18.76-1.77 1.33-2.44 2.91-2.5 3.48-.06.56-.62 1.81.31 3.46.53 1.06 1.63 1.46 2.2 1.73.34.21.65.69.74.87.03-.14.26-.89-.19-1.13l.05-.08v-.02a.35.35 0 0 0 .04-.07v-.01c.09-.28-.12-.66-.5-.9a1.2 1.2 0 0 0 -.62-.22c-.2 0-.34.07-.42.2a.36.36 0 0 0 -.03.07c-.18-.2-.33-.41-.42-.68h.12l.37-.16h.02c.03 0 .06-.02.08-.04h.02c.26-.17.37-.64.25-1.13-.11-.48-.42-.83-.72-.83a.36.36 0 0 0 -.2.06l-.06.02c.05-.24.12-.46.23-.67l.14.1.02.03.08.05h.01c.3.15.81-.06 1.2-.5.45-.48.59-1.08.32-1.32a.37.37 0 0 0 -.09-.05l-.04-.05c.94-.17 1.7-1.8 1.93-2.34.1-.26.13-.12-.32-.64 0 0-.58-.07-.84.01z"/><path d="m26.63 46.56c.37.2.3.17 1.03.68 1.96 1.35 2.3 2.52 2.52 3.2.12.67.3 2.42-.04 3.26-.53 1.07-1.63 1.46-2.2 1.74-.35.21-.65.68-.74.87-.03-.15-.27-.89.18-1.13l-.04-.09-.01-.01a.35.35 0 0 1 -.03-.08c-.09-.28.12-.66.49-.9.2-.14.43-.22.63-.22s.34.06.42.19l.03.08c.18-.2.32-.42.41-.68l-.11-.01-.37-.15h-.03a.41.41 0 0 1 -.08-.04c-.27-.17-.38-.64-.27-1.13.12-.48.43-.83.73-.83a.36.36 0 0 1 .2.05l.06.02a2.75 2.75 0 0 0 -.23-.67l-.14.11-.02.02a.37.37 0 0 1 -.08.05l-.01.01c-.3.14-.81-.07-1.2-.5-.45-.49-.6-1.08-.32-1.32a.37.37 0 0 1 .08-.06l.05-.04c-.94-.17-1.71-1.8-1.93-2.35-.1-.25-.72.06-.27-.46.13-.15.9.17 1.3.4z"/></g><path d="m26.211 35.122c.09709-.81872.86423-.82784.87895-.1434.01391.69435.03242 1.2088-.0099 1.604-.0685.59209-.88765.74417-.89696-.13012-.02337-.45491.0206-.86996.02793-1.3304zm7.5299-.7037c.17601-.79724.94745-.7355.8916-.05127-.05667.69415-.0934 1.3912-.24456 1.7606-.15521.41897-.84182.42974-.77139-.43299.03724-.45616.06638-.81314.12436-1.2763z" fill="#4e3b3a" stroke="#2f2828" stroke-width=".37"/><path d="m34.25 39.71c-.44-.44.45-1.94.75-2.25s-.08 2.72-.75 2.25zm.98-.34c-.37-.34.38-1.45.63-1.68s-.08 2.04-.64 1.68zm-1.87.41c-.43-.44.45-1.94.75-2.25.3-.3-.08 2.72-.75 2.25zm-8.81-.12c-.42-.33.44-1.32.73-1.52.3-.2-.1 1.88-.73 1.52zm.92.5c-.44-.44.45-1.94.75-2.25s-.08 2.71-.75 2.25zm.97-.08c-.43-.44.46-1.94.76-2.25s-.09 2.71-.76 2.25z" fill="#d35034" fill-opacity=".44"/><path d="m32.09 40.5c-.73 1.52-3.32 1.62-4.01.18" fill="none" stroke="#762c2c" stroke-linecap="round" stroke-width=".67"/><g opacity=".7" transform="translate(-77.37 -103.6)"><path d="m92.96 119.7c2.33-1.93 19.72-1.1 20.54-.09.81 1-3.23 14.2-4.63 14.28-1.39.1-17.29-11.48-15.9-14.2z" fill="#fff"/><path d="m113.68 119.55c-.89 4.96-1.97 9.21-4.82 14.33 9.08-.28 14.01-.58 14.54-.71 1.04-.25.1-1.58-.67-2.41-.26-.29-4.58-5.65-9.05-11.21z" fill="#f1680d"/><path d="m102.54 106.12c-.34-.07-.7.09-1.05.63-.38.85-4.5 7.07-8.53 13.03 4.67-.4 12.29-.91 20.86-.05l-10.57-13.14c-.2-.24-.45-.42-.71-.47z" fill="#211f20"/><path d="m93 119.7c-3.75 5.54-7.45 10.88-8.05 11.48-1.24 1.24.6 3.41 1.52 3.3.46-.05 13.43-.3 22.27-.58-5.48-5.5-12.19-11.1-15.74-14.2z" fill="#737373"/></g><g fill="#ffddc2"><path d="m31.88 46.78c.06.25.2.5.39.74.1.13.25.23.4.24.07 0 .14 0 .18-.05.13-.11.16-.3.13-.5a1.74 1.74 0 0 0 -.32-.69.6.6 0 0 0 -.48-.23c-.17 0-.33.1-.33.27 0 .07 0 .16.03.22zm-12.18.16c-.07.25-.2.51-.4.75-.1.12-.24.22-.39.23-.07 0-.14 0-.18-.05-.13-.1-.17-.3-.13-.5.04-.23.16-.47.31-.69a.6.6 0 0 1 .48-.23c.18 0 .34.1.34.27 0 .07 0 .16-.03.22z" fill-opacity=".6"/><path d="m17.63 10.14c-.39.55-.67.97-.92 1.25-.39.44-1.37.12-.88-.57.25-.37.58-.84.98-1.31.4-.48 1.2.08.82.63z"/></g></svg>