<svg height="155.4" viewBox="0 0 58.3 41.1" width="220.2" xmlns="http://www.w3.org/2000/svg" xmlns:xlink="http://www.w3.org/1999/xlink"><radialGradient id="a" cx="56.5" cy="167.7" gradientTransform="matrix(1.203 0 0 .16716 -34.4 9.7)" gradientUnits="userSpaceOnUse" r="20.6"><stop offset="0" stop-color="#838383"/><stop offset="1" stop-color="#bfbfbf" stop-opacity="0"/></radialGradient><g fill="#ffb370"><path d="m40.9 34.1c.4.7-.4 2-.7 2.5-.3.4-2.5-.3-2.8-.5-.59678-.84838-1.037-1.7966-1.3-2.8l7-2.2c-1.5.5-2 1.2-2.2 3z"/><path d="m50.9 24.4c-.8.1-.9 2-1.7 2.7-.9.7-2.5 1.7-4.3 1l1.8 2.6c1.7-.4 3-1.6 3.6-2.7.6-1.2.6-3.6.6-3.6z"/></g><ellipse cx="33.5" cy="37.7" fill="url(#a)" opacity=".8" rx="24.8" ry="3.4"/><g fill="#cb6e3b"><path d="m38.3 36.5c.11469.43628-.38147.88734-1.1 1-.79509.13523-1.5127-.19964-1.5-.7-.10344-.47799.51096-.9506 1.3-1 .75285-.0911 1.3982.23157 1.4.7zm-8.5-.6c0 .7 1.9 1.6 2.5 1.8s2.7-1 2.9-1.2-.1-2.3-.4-2.6l-9.5.2c2.1 0 3 .4 4.5 1.8z"/><path d="m19.8 34.3 9.3.8c.1.7-2.3 2.4-3.7 3.2s-2.9.5-3.8-.4c-.9-.8-1.8-3.6-1.8-3.6z"/></g><g fill="#fd9c50"><path d="m30.4 7.3c9.7 6.2 11.3 15.2 6.8 22.2-4 6.3-15.5 7.7-22.3 2.2z"/><path d="m52.5 37c-.2-.8-2.2-.6-3-1.4-1-.7-2.2-2.2-1.5-4.1.6-2-2.9-2.4-3.4-2.2-.6.2.1 2.7.7 4.4.7 1.7 2 2.8 3.4 3.3 1.2.4 3.8 0 3.8 0zm-16.9-1.8c.7 0 1.4-2.7 1.4-3l-9.3-3-3.2 6.8c0 1.1.5 3 2.2 2.4.6-.3 0-2 1.4-3 1.6-1.3 2.6-1.8 4.5-1zm-35.5-32.3c-.3-1.3.4-3.2 1.8-2.9.9.2 36 2.8 37 2.8 1.4 0 2.5 1 2 2.3-.6 1.1-29.8 32.9-30.5 33.8-.6.9-3.7 1.5-3.7-.5s-5.9-33.6-6.6-35.6z"/><path d="m40.5 33.5c.2 1-1.3 2.1-1.8 2.5l-3.1-1.2c-.3-.3-1.1-3.6-1-4s2.4-4.2 5.3-4.7c2.6683-.43692 5.3767.5035 7.2 2.5.7.9 1.8 2.5.2 3.2-.6.3-1.4-1.3-3.2-1-2 .2-2.8.8-3.6 2.7zm-15.9.9 2.2 3.9c-.2.6-2.7-.2-4.5-1-1.5819-.69995-2.7848-2.0486-3.3-3.7z"/></g><g fill="#cb6e3b"><path d="m37 35.6c1.6-1.2 3.4-4 4-4.3.2-.6 1.9-1.2 2.9-1 1.1.2 1.4 2.5 1.5 3 0 .5.2 1 .3 1.2 0 0-.7-.3-.8-.8h-.1c-.3 0-.6-.3-.6-.7v-.6c0-.2.2-.3.3-.3 0-.2-.3-.8-.6-.8v.5c0 .3-.5.6-1 .6-.4 0-.8-.2-.9-.5-.0056-.0331-.0056-.0669 0-.1-.2 0-.4.1-.5.3h.1v.1c.3.3.3.8 0 1.2-.4.5-.9.8-1.2.6 0 .8-1.1 1.6-1.6 1.9-.2.2-.2.4-.7.4z"/><path d="m39.3 35.5c-.3-.6-1.9 0-2.6-.8-1.8-1.8-3.7-2.1-4.3-2-.6 0-2.1-.3-3.7 1.3-.9538.79594-1.6786 1.8314-2.1 3 0 .6-.3 1.3-.5 1.5.2 0 1.4-.1 1.5-.7h.2c.4 0 .7-.3 1-.8v-.8c0-.3-.1-.4-.3-.5l.6-.6.3.4v.2c.3.2.8.2 1.3 0l3.6.2c.4 1 2.7 1.2 3.4 1.3l.8-1.5z"/><ellipse cx="-3.3287" cy="52.879" rx="1.3" ry=".8" transform="matrix(.61718 -.78682 .79104 .61176 0 0)"/></g><path d="m25.3 22.9a8 8 0 0 1 4.3.4m-2.4 2.1c.1-1.6.3-3.1.6-4.6m3.5-4.4c1.6-.3 2.9 0 4.2.3m-2.7 2c.4-1.3.8-2.6.6-4.2" fill="none" stroke="#000" stroke-linecap="round" stroke-width=".59994"/><path d="m35.7 25.5c-.7 0-1-.7-.9-1.4.2-1.1 2.4-1.5 1.9.4-.5 1.1-1 1-1 1z" fill="#91332b" stroke="#5d0000" stroke-width=".40005"/><path d="m36.3 21c-.7 0-1.2-1.7-1.2-2.1s2 2 1.1 2zm.5-.7c-.6 0-1.1-1.7-1.1-2.1s1.9 2 1.1 2.1zm.5-.9c-.6 0-.9-1.3-.8-1.7 0-.3 1.4 1.5.7 1.7zm-7.3 7.9c-.6 0-.7-1.3-.6-1.6 0-.4 1.3 1.4.6 1.6zm1-.4c-.6 0-1.1-1.6-1.1-2 0-.5 1.9 1.9 1 2zm.6-.7c-.6 0-1-1.7-1.1-2.1 0-.4 2 2 1.1 2z" fill="#d35034" fill-opacity=".4"/><g opacity=".7" transform="translate(-76.7 -119.2)"><path d="m84 136.8c.2-3 12.8-15 14.1-15 1.3.2 8 12.2 7.2 13.3-1 1-20.3 4.6-21.3 1.7z" fill="#fff"/><path d="m98.2 121.7c3 4 5.3 7.8 7 13.4a214 214 0 0 0 9.6-11c.5-1-1-1.2-2.2-1.2z" fill="#f1680d"/><path d="m80.8 120.5c-.3.2-.4.6-.3 1.2.4.8 2 8.1 3.6 15.1 3-3.6 7.8-9.5 14.3-15l-16.8-1.5c-.3 0-.6 0-.8.2z" fill="#211f20"/><path d="m84 136.8c1.5 6.5 2.8 12.9 2.8 13.7 0 1.8 2.9 2 3.4 1.2l15-16.5c-7.8.1-16.5 1.1-21.2 1.6z" fill="#737373"/></g><g fill="#ffddc2"><path d="m3.8 11.8.3 1.5c0 .6-.9 1.1-1 .3-.1-.5-.3-1-.3-1.7 0-.6.9-.8 1-.1z"/><path d="m39.2 29.4.6-.6v-.6h-.5c-.2 0-.4.3-.6.5-.1.1-.2.3-.1.5 0 .2.2.3.4.2zm-9.9 1.2a2 2 0 0 1 -.6.6h-.6v-.5c0-.2.3-.4.5-.6h.5c.2 0 .3.1.3.3z" fill-opacity=".6"/></g></svg>