<svg height="224.6" viewBox="0 0 55.71 62.61" width="206.3" xmlns="http://www.w3.org/2000/svg" xmlns:xlink="http://www.w3.org/1999/xlink"><radialGradient id="a" cx="56.46" cy="167.69" gradientTransform="matrix(1.203 0 0 .16716 -43.16 31.14)" gradientUnits="userSpaceOnUse" r="20.58"><stop offset="0" stop-color="#838383"/><stop offset="1" stop-color="#bfbfbf" stop-opacity="0"/></radialGradient><ellipse cx="24.76" cy="59.17" fill="url(#a)" opacity=".79" rx="24.76" ry="3.44"/><g fill="#ffb370"><path d="m21.18 42.05c.5.61-.65 2.07-.5 3.16.14 1.1.7 2.89 2.53 3.49 1.84.6.78 3.86.34 4.17s-2.37-1.92-3.38-3.33c-.91411-1.2938-1.2442-2.9115-.91-4.46.29-1.22 1.92-3.02 1.92-3.02zm12.94 8.2c-.13.83-1.58 1.4-2.05 1.56s-1.84-1.62-1.99-1.93l5.68-5.47 4.92 3.96c.28.93.33 2.97-1.1 3.06-.54.03-.58-2.03-1.96-2.38-1.55-.4-2.3-.13-3.5 1.2z"/><path d="m28.86 50.53c.3.78 1.83 1.04 2.32 1.1.5.05 1.46-1.98 1.54-2.31l-6.7-4.15-3.97 4.9c-.09.98.3 2.98 1.71 2.77.54-.09.15-2.1 1.42-2.75 1.43-.71 2.23-.6 3.67.44zm11.45-9.45c-.37.7 1.06 1.88 1.15 2.98.1 1.1-.07 2.97-1.74 3.94l3.15.18c.68-1.59.53-3.34-.05-4.55-.54-1.13-2.51-2.55-2.51-2.55z"/></g><g fill="#fd9c50"><path d="m43.34 41.76c-.58.58.6 2.17.4 3.27-.21 1.11-.89 2.9-2.9 3.36s-.62 3.63-.16 3.99c.46.35 2.25-1.51 3.4-2.87 1.0501-1.2426 1.4902-2.8892 1.2-4.49-.26-1.27-1.94-3.26-1.94-3.26zm-23.83-.96c.52.63-.82 2.1-.72 3.22s.58 2.97 2.54 3.63.25 3.67-.25 3.98c-.5.3-2.08-1.73-3.09-3.2-.91659-1.3402-1.1879-3.0193-.74-4.58.4-1.24 2.26-3.05 2.26-3.05zm26.35-14.57c2.33 11.27-3.09 18.72-11.25 20.32-7.25 1.43-16.24-5.91-17.02-14.65l28.28-5.67z"/><path d="m27.96 49.43c.3.9 2.17 1.24 2.77 1.32 2.5612-.75932 2.2835-5.0677.96-6.57-.33-.29-4.16-2.48-6.9-1.4-2.73 1.1-4.55 3.4-4.96 5.73-.2 1.1-.27 3.06 1.49 2.86.67-.07.55-1.86 2.17-2.55 1.83-.78 2.8-.63 4.48.6zm.08-48.14c.72-1.13 2.58-1.9 3.36-.67.45.73 22.94 27.91 23.61 28.63.93.98 1.02 2.48-.22 3.04-1.25.3-44.38 1.29-45.5 1.42-1.1.12-3.73-1.64-2.25-3.09 1.47-1.44 20.13-27.43 21-29.33z"/><path d="m34.11 49.49c-.38.87-2.28 1.02-2.88 1.03l-.29-6.63c.35-.25 4.39-2.05 7-.68 2.61 1.36 4.19 3.83 4.36 6.19.08 1.12-.04 3.07-1.77 2.7-.66-.15-.36-1.91-1.9-2.77-1.74-.95-2.72-.9-4.52.16z" fill-rule="evenodd"/></g><g opacity=".7" transform="translate(-73.44 -113.75)"><path d="m95.12 129.78c2.34-1.92 19.73-1.09 20.54-.08.82 1-3.23 14.19-4.62 14.28-1.4.09-17.3-11.49-15.92-14.2z" fill="#fff"/><path d="m115.84 129.63c-.88 4.96-1.97 9.22-4.81 14.34 9.08-.28 14-.58 14.53-.71 1.04-.26.1-1.58-.66-2.41-.26-.3-4.59-5.66-9.06-11.22z" fill="#f1680d"/><path d="m104.7 116.2c-.34-.06-.7.1-1.04.64-.39.84-4.5 7.06-8.54 13.02 4.68-.4 12.29-.9 20.87-.05l-10.57-13.13c-.2-.24-.45-.43-.72-.48z" fill="#211f20"/><path d="m95.17 129.78c-3.75 5.54-7.46 10.88-8.06 11.48-1.23 1.24.6 3.42 1.52 3.3.46-.05 13.43-.3 22.27-.57-5.48-5.5-12.18-11.1-15.73-14.2z" fill="#737373"/></g><g fill="#ffddc2"><path d="m24.22 10.15c-.39.54-.67.96-.92 1.25-.39.43-1.37.11-.88-.57.25-.38.58-.84.98-1.32s1.2.09.82.64z"/><path d="m35.45 45.39c.26.02.55-.03.84-.13.15-.05.3-.16.35-.29.03-.07.04-.13.01-.19-.05-.16-.23-.26-.42-.29-.23-.03-.5 0-.76.07a.6.6 0 0 0 -.38.37c-.06.17-.02.35.15.4.06.03.15.05.21.06zm-11.23-.77c-.16.2-.4.39-.66.53-.14.08-.32.11-.45.06-.07-.02-.13-.06-.15-.12-.08-.15-.04-.34.07-.5.13-.2.33-.38.56-.52a.6.6 0 0 1 .53-.02c.17.07.27.22.2.38a.61.61 0 0 1 -.1.19z" fill-opacity=".6"/></g><path d="m40.84 39.71c-.44-.43.45-1.94.75-2.25.3-.3-.08 2.72-.75 2.25zm.98-.34c-.37-.34.38-1.45.63-1.68s-.07 2.04-.63 1.68zm-1.86.42c-.44-.44.45-1.94.75-2.26.3-.3-.09 2.72-.75 2.26zm-8.82-.13c-.42-.33.44-1.32.73-1.52.3-.2-.1 1.89-.73 1.52zm.92.5c-.44-.44.45-1.94.75-2.25.3-.3-.08 2.72-.75 2.25zm.98-.08c-.44-.44.45-1.94.75-2.25s-.08 2.72-.75 2.25z" fill="#d35034" fill-opacity=".44"/><path d="m38.68 40.5c-.72 1.53-3.32 1.63-4.01.18" fill="none" stroke="#762c2c" stroke-linecap="round" stroke-width=".67"/><g fill="#cb6e3b"><path d="m31.48 49.71c.31-.28-2.27-.52-1.37-.56 2.14-.1 5.5-1.52 6.21-1.5.67.12 2.37.55 3.06 1.15.83.85.83 2.02.9 2.65.08.4.43.84.57.98-.15-.02-.93-.04-1-.55l-.1.01-.02.01a.4.4 0 0 1 -.08 0h-.01c-.28 0-.57-.33-.68-.76a1.2 1.2 0 0 1 0-.67c.07-.18.18-.3.33-.33h.08a1.98 1.98 0 0 0 -.5-.62.38.38 0 0 1 -.05.1l-.26.3-.01.03a.41.41 0 0 1 -.06.06h-.01c-.25.2-.73.15-1.15-.12-.41-.28-.64-.68-.54-.97a.35.35 0 0 1 .12-.16l.04-.05a2.75 2.75 0 0 0 -.7-.02l.04.18.02.02.02.1c.04.34-.33.75-.87.97-.61.26-1.22.2-1.36-.14a.37.37 0 0 1 -.02-.1l-.02-.06c-.48.83-2.01.85-2.6.87-.27.01-.42.2-.84-.08-.17-.11.52-.44.86-.74z"/><path d="m32.45 49.25c-.26-.41-1.69.01-2.4-.57-1.71-1.4-3.4-1.68-3.97-1.6-.56.08-1.9-.18-3.28 1.12-.91.77-1.04 1.93-1.16 2.55-.13.39-.52.8-.68.92.15 0 .93.05 1.06-.44l.09.02h.02l.08.02h.01c.28.02.6-.28.76-.7.08-.22.1-.46.06-.66-.05-.18-.15-.31-.29-.36a.37.37 0 0 0 -.08-.01c.14-.22.32-.42.55-.56l.05.1.23.33v.02l.06.07v.01c.23.22.72.21 1.16-.02.44-.22.71-.6.64-.9a.35.35 0 0 0 -.1-.17l-.04-.06c.24-.01.47.01.7.06l-.06.17-.02.02a.37.37 0 0 0 -.03.09v.01c-.07.33.26.77.77 1.05.58.32 1.19.31 1.36 0a.37.37 0 0 0 .03-.1l.03-.06c.39.88 2.48.97 3.06 1.05.27.04-.18.37.22-.2 0 0 .2-.87.45-.96z"/><ellipse cx="36.387" cy="46.265" rx="1.31" ry=".8" transform="matrix(.99103 .13364 -.13364 .99103 0 0)"/><ellipse cx="17.277" cy="57.447" rx="1.31" ry=".8" transform="rotate(-16.26020470831)"/></g><path d="m30.98 36.34c-.09-2.23 3.08-2.6 3.4-.35m5.3-.14c.03-2.23 3-2.16 2.95 0" fill="none" stroke="#000" stroke-linecap="round" stroke-width=".57"/><path d="m5.42 47.47c-2.41-.48 2.07-4.28 2.49-1.72 1.57-1.7 4 1.45 3.17 2.9-.95 1.91-2.12 2.61-2.96 1.45-.75 1.25-2.14 1.82-3.32-.08-1.1-1.77-.5-2.6.62-2.55z" fill="#d6d6d6" stroke="#a0a0a0" stroke-width=".26"/><g fill="none" stroke-linecap="round"><path d="m13.5 46.49c2.07.04 2.49.01 2.49.01m-3.16 1.46c2.62.05 3.15.02 3.15.02m-2.59 1.41c2.07.05 2.48.01 2.48.01" stroke="#acacac" stroke-width=".67"/><path d="m5.82 48.79c-.43-.26-.57-.76-.47-1.32.1-.55.92-.95 1.3-.8m2.54 2.38c-.07.5-.49.83-1.04.95-.55.11-1.23-.5-1.23-.9" stroke="#9f9f9f" stroke-width=".26"/></g></svg>