<svg height="224.6" viewBox="0 0 54.6 59.4" width="206.3" xmlns="http://www.w3.org/2000/svg" xmlns:xlink="http://www.w3.org/1999/xlink"><radialGradient id="a" cx="56.5" cy="167.7" gradientTransform="matrix(1.203 0 0 .16716 -38.1 27.9)" gradientUnits="userSpaceOnUse" r="20.6"><stop offset="0" stop-color="#838383"/><stop offset="1" stop-color="#bfbfbf" stop-opacity="0"/></radialGradient><ellipse cx="29.8" cy="56" fill="url(#a)" opacity=".8" rx="24.8" ry="3.4"/><path d="m17.6 42.9c-.4 1.1 5 5.4 9.2 4.8 4-.6 6.1-2.4 6.7-3.2a14 14 0 0 0 1.4-4.6c0-.9-6.4-.5-8.8 0-2.3.5-6.6 1.3-8.5 3z" fill="#cb6e3b"/><g fill="#ffb370"><path d="m10.9 52.9c.7-.4 1.8 1.1 3 1.3 1 .2 2.9.1 4-1.5 1-1.6 3.9.3 4 .8.2.6-2.4 1.8-4 2.4-1.7.6-3.4.3-4.6-.4-1.1-.6-2.4-2.6-2.4-2.6z"/><path d="m20.7 43.4c-.3-.2-2.8.2-3.1.4s-3.1 2.5-2.7 4.9c.3 2.3 1.7 4.4 3.6 5.2.9.3 3 .5 3.1-1z"/></g><g fill="#fd9c50"><path d="m25.4 48.3c1 0 1.7-1.7 1.9-2.2l-6-2.3c-.4.3-3.4 3.2-3 5.9.34296 2.5192 1.9719 4.6784 4.3 5.7 1 .4 2.9.9 3-.7.2-.6-1.6-1-1.8-2.5-.3-1.8 0-2.7 1.6-3.9zm9.5-2.5c0 .8-1.6 1.6-2.1 1.8l-2.4-4.3c.2-.3 2.7-3.2 5.5-3.2 2.7 0 5.2 1 6.2 2.6.4.8.8 2.7-.8 3-.6.2-1-1.7-2.6-1.7-1.8 0-2.7.3-3.8 1.8zm-20.5-44c.4-1.3 2-2.4 3.1-1.4.6.6 28.5 22.3 29.3 22.8 1 .8 1.5 2.2.4 3-1.1.6-43 11-44.1 11.3-1 .4-4-.8-2.9-2.5 1.2-1.8 13.7-31.2 14.2-33.2z"/><path d="m49.3 45.3c-.7.1-1.3-1.5-2.2-2-1-.3-3.6 0-5 1.4-1.6 1.2-1.6-2-1.6-2.4 0-.5 1.7-1.2 3.4-1.3 1.4596-.1758 2.9226.29968 4 1.3.9.8 1.4 3 1.4 3zm-34.1 8.9c.7-.3 1.8 1.2 2.8 1.3 1.1.2 3 .2 4.1-1.4 1-1.6 3.6.5 3.7 1 .2.6-2.1 1.5-3.7 2.1-1.7.6-3.4.3-4.6-.3-1-.7-2.3-2.7-2.3-2.7zm21.6-1c-.6-.3-1.4 1-2.2 1.2s-2.3.1-3-1.3c-1-1.5-3 .2-3.2.7-.1.5 2 1.6 3.2 2.2 1.2.5 2.5.2 3.4-.4.8-.5 1.8-2.4 1.8-2.4zm.9-27.9c2.3 11.3-3.1 18.7-11.3 20.4-7.2 1.4-16.6-5.9-17.4-14.6z"/></g><g fill="#cb6e3b"><path d="m30.8 49.6c-.29016-.0529-.62859.24323-.8.7-.11144.43487-.02958.84418.2 1 .02956.0401.0631.07364.1.1l.4.2c1.3715-.39703 1.0609-1.4291.1-2zm-.9 2.3c-.19272.01529-.40673.08663-.6.2-.40148.20749-.65822.54981-.6.8l.2.4.2.1 1.2-1.3c-.05836-.12274-.20276-.19494-.4-.2zm-3.4-6.3-1.3.6c-1.9 1.3-2.7 2.7-2.8 3.2 0 .6-.3 1.7.6 3.3.5 1 1.6 1.3 2.2 1.6.3.1.6.6.7.8 0-.2.3-.9-.2-1v-.2h.1c0-.3-.1-.7-.5-.9l-.6-.2c-.2 0-.3 0-.4.2-.2-.1-.4-.3-.4-.6l.4-.1h.1c.3-.2.4-.6.3-1-.1-.5-.4-.8-.7-.8-.06559-.01694-.13441-.01694-.2 0 0-.2 0-.4.2-.6l.1.1h.1c.3.2.8 0 1.2-.4s.6-1 .3-1.2h-.1c.9-.2 1.6-1.7 1.9-2.2 0-.3.2-.2-.3-.7zm8.1 0 .3.2c.3.3.9.1 1.2-.4.4-.4.5-1 .3-1.2zm2.2-1.7c0 .3.4.6.8.6.5 0 1 0 1-.4l.1-.5v-.2c-.1-.2-.4-.4-.8-.5-.5 0-1 .1-1 .5zm2.4.7.2.4c.3.2.6.4.7.3h.1l.2-.2.1-.2-.9-.9-.2.2c-.2.1-.2.2-.2.4z"/><path d="m32.2 44.9.5 2.7c.5-.2 2.1-1 2.1-1.8 1.2-1.5 2-1.9 3.8-1.8 1.7 0 2 1.9 2.6 1.8l-.5-1.2c-1.9-1.9-2.1-1.6-4.3-1.7-1.7.1-3 .8-4.2 2z"/></g><path d="m28.4 47.8c-.8-.1-1.4-1.8-1.6-2.3s1.8-1.7 2.1-2c.3 0 2.6.3 2.9.6.3.2 3 2.8 2.7 5.2-.2 2.5-1.4 4.7-3.2 5.4-.8.3-2.7.5-3-1 0-.6 2-.7 2.1-2.2.2-1.7-.7-2.5-2-3.7z" fill="#fd9c50"/><g opacity=".7" transform="translate(57.5 -119.1)"><path d="m-45.8 136.8c1.8-2.4 19-5.5 20-4.7s0 14.6-1.4 15c-1.3.4-19.4-7.4-18.6-10.3z" fill="#fff"/><path d="m-25.7 132c.3 5 .2 9.4-1.5 15a214 214 0 0 0 14-3.9c1-.5-.2-1.6-1.2-2.2l-11.3-9z" fill="#f1680d"/><path d="m-39.6 121.4c-.3 0-.6.2-.8.8-.2 1-2.8 8-5.4 14.7 4.4-1.5 11.7-3.7 20.3-4.8l-13.2-10.4z" fill="#211f20"/><path d="m-45.8 136.8c-2.4 6.2-4.8 12.2-5.3 13-1 1.4 1.4 3.2 2.2 2.8l21.6-5.5c-6.6-4.1-14.4-8.1-18.5-10.3z" fill="#737373"/></g><path d="m23.5 34.3c0-.8.7-1 .8-.3l.1 1.6c0 .6-.8 1-.9 0zm7.3-1.8c.2-.8 1-.8 1-.2 0 .7 0 1.5-.2 1.8 0 .5-.8.6-.8-.3z" fill="#4e3b3a" stroke="#2f2828" stroke-width=".4"/><path d="m28.3 41.9c-.5-.1-.4-.8-.2-1.5.4-1.3 1.5-1.8 1 .1-.5 1.5-.8 1.5-.8 1.5z" fill="#91332b" stroke="#5d0000" stroke-linejoin="bevel" stroke-width=".39991"/><path d="m31.5 37.7c-.5-.4.5-2 .8-2.4s-.2 2.7-.8 2.4zm1-.5c-.4-.3.4-1.6.7-1.9.2-.2-.2 2.1-.8 1.9zm-2 .7c-.3-.3.6-2 1-2.4.2-.3-.3 2.8-1 2.4zm-8.3 1.6c-.4-.3.5-1.4.8-1.7s-.1 2-.8 1.7zm.9.4c-.4-.5.6-2.1.9-2.5s-.2 2.7-.9 2.4zm1-.4c-.4-.3.6-2 .9-2.4s-.3 2.8-.9 2.4z" fill="#d35034" fill-opacity=".4"/><path d="m17.1 46.3-.6.6-.4.1h-.2v-.5l.5-.6h.5c.1 0 .3.1.2.3z" fill="#fffdfb" fill-opacity=".5"/><g fill="#ffddc2"><path d="m32.2 46.4-.9-.7-.2-.5v-.2c.2-.2.5-.2.7 0 .3 0 .5.2.8.5l.2.6c0 .2-.2.4-.4.4zm4.1-5.1-.8.1c-.1 0-.3 0-.3-.2l-.1-.2c0-.1.1-.3.3-.3.2-.1.4-.2.7-.1l.4.2c.1.2.1.4 0 .4zm-15 5-.4.7-.4.2h-.1c-.2-.2-.2-.3-.2-.5l.3-.6.5-.3c.2 0 .3.1.3.3z" fill-opacity=".6"/><path d="m13 10.8-.6 1.4c-.3.5-1.3.4-1-.4l.7-1.5c.3-.5 1.2-.2 1 .5z"/></g></svg>